# xmcd CD database file
#
# Track frame offsets:
#	150
#	12342
#	32242
#	51335
#	72020
#	88819
#	116552
#	131185
#	148365
#	164578
#	180909
#	200059
#	213006
#	233007
#	250075
#	265983
#	283144
#	300665
#	312107
#	323665
#
# Disc length: 4564 seconds
#
# Revision: 2
# Processed by: cddbd v1.5.2PL0 Copyright (c) Steve Scherf et al.
# Submitted via: CDex 1.51
#
DISCID=2911d214
DTITLE=Various Artist - ZM-Party-BS-Disc-1
DYEAR=1900
DGENRE=Blues
TTITLE0=Beatles The - A Hard Days Night
TTITLE1=Lionel Richie - All Night Long
TTITLE2=Free - All Right Now
TTITLE3=Don McLean - American Pie
TTITLE4=Britney Spears - Baby On more Time
TTITLE5=Queen - Bohemian Rhapsody
TTITLE6=Foundations The - Build Me Up Buttercup
TTITLE7=Kylie Minogue - Can't Get You out Of My Head
TTITLE8=Andy Williams - Can't Take My Eyes Off You
TTITLE9=Diana Ross - Chain Reaction
TTITLE10=Dexy's Midnight Runners - Come On Eileen
TTITLE11=Queen - Crazy Little Thing Called Love
TTITLE12=Mavericks The Dance The Night Away
TTITLE13=ABBA - Dancing Queen
TTITLE14=Tom Jones - Delilah
TTITLE15=Kenny Loggins - Footloose
TTITLE16=Brendon - Gimme Some
TTITLE17=HouseMartins The - Happy Hour
TTITLE18=Beatles The - Help
TTITLE19=Donna Summer - Hot Stuff
EXTD=
EXTT0=
EXTT1=
EXTT2=
EXTT3=
EXTT4=
EXTT5=
EXTT6=
EXTT7=
EXTT8=
EXTT9=
EXTT10=
EXTT11=
EXTT12=
EXTT13=
EXTT14=
EXTT15=
EXTT16=
EXTT17=
EXTT18=
EXTT19=
PLAYORDER=
